<svg width="32" height="32" viewBox="0 0 32 32" fill="none" xmlns="http://www.w3.org/2000/svg">
<rect width="32" height="32" rx="7" fill="#FFAD5C"/>
<rect x="15.3334" y="5.33325" width="1.33333" height="8" rx="0.666667" fill="#022C22"/>
<rect x="15.3334" y="18.6665" width="1.33333" height="8" rx="0.666667" fill="#022C22"/>
<rect x="23.071" y="7.98608" width="1.33333" height="8" rx="0.666667" transform="rotate(45 23.071 7.98608)" fill="#022C22"/>
<rect x="13.6429" y="17.4141" width="1.33333" height="8" rx="0.666667" transform="rotate(45 13.6429 17.4141)" fill="#022C22"/>
<rect x="18.6667" y="16.6665" width="1.33333" height="8" rx="0.666667" transform="rotate(-90 18.6667 16.6665)" fill="#022C22"/>
<rect x="5.33337" y="16.6665" width="1.33333" height="8" rx="0.666667" transform="rotate(-90 5.33337 16.6665)" fill="#022C22"/>
<rect x="17.4142" y="18.3569" width="1.33333" height="8" rx="0.666667" transform="rotate(-45 17.4142 18.3569)" fill="#022C22"/>
<rect x="7.98621" y="8.92896" width="1.33333" height="8" rx="0.666667" transform="rotate(-45 7.98621 8.92896)" fill="#022C22"/>
</svg>
